PathFileType	3	(X/Y/Z)	D:\Vicon Setup\UG\Test1\New Session\NewSession13.trc
DataRate	CameraRate	NumFrames	NumMarkers	Units	OrigDataRate	OrigDataStartFrame	OrigNumFrames
100.0	100.0	13	27	mm	100.0	705	333	
Frame#	Time	Sternum			LShoulder			RShoulder			LASIS			RASIS			RPSIS			LPSIS			RKneeLateral			RKneeMedial			RFibulaHead			RMidShank			RAnkleLateral			RAnkleMedial			RHeel			RMT5			RMT2			RToe			LKneeLateral			LKneeMedial			LFibulaHead			LMidShank			LAnkleLateral			LAnkleMedial			LHeel			LMT5			LMT2			LToe			
		X1	Y1	Z1	X2	Y2	Z2	X3	Y3	Z3	X4	Y4	Z4	X5	Y5	Z5	X6	Y6	Z6	X7	Y7	Z7	X8	Y8	Z8	X9	Y9	Z9	X10	Y10	Z10	X11	Y11	Z11	X12	Y12	Z12	X13	Y13	Z13	X14	Y14	Z14	X15	Y15	Z15	X16	Y16	Z16	X17	Y17	Z17	X18	Y18	Z18	X19	Y19	Z19	X20	Y20	Z20	X21	Y21	Z21	X22	Y22	Z22	X23	Y23	Z23	X24	Y24	Z24	X25	Y25	Z25	X26	Y26	Z26	X27	Y27	Z27	
705	7.04	-239.33768	1341.4022	849.35779	-54.905445	1411.7333	748.67047	-423.33032	1386.5669	777.12152	-124.22075	965.39502	794.8938	-384.02057	982.66974	786.19006	-298.28372	998.2002	616.70581	-168.90215	982.80365	615.9184	-389.89755	536.32544	605.43604	-259.42929	511.50818	627.38672	-389.95416	458.02646	574.80188	-300.84161	298.20657	542.81427	-348.16803	127.49306	421.18356	-268.50446	141.90689	475.70874	-291.46042	120.27679	350.59897	-393.79138	24.832752	544.08551	-326.3656	56.161392	558.65851	-326.00204	41.172569	594.58368	-93.906067	508.52771	888.21289	-227.71686	498.83435	911.1925	-91.142723	447.97961	901.16412	-157.53749	327.22064	1011.317	-103.79654	109.62	1055.2031	-178.39537	155.46878	1088.2449	-174.29802	50.989525	1024.4658	-41.141209	120.4856	1190.7501	-99.373398	161.48349	1198.6351	-104.26104	178.05005	1234.8103
706	7.05	-237.35916	1339.6141	864.58057	-52.87291	1409.1605	763.86719	-421.20676	1385.0917	792.05011	-123.5377	963.09772	810.80267	-383.50842	980.28693	801.87549	-296.59265	996.24341	632.14154	-167.28426	980.88489	631.46606	-389.93723	535.13373	618.8266	-260.12405	509.60742	641.38116	-390.2149	457.4584	586.91992	-301.33337	298.46652	550.68304	-348.72531	130.8403	424.58435	-269.01556	143.85277	479.47763	-291.9649	125.59267	354.06293	-393.71204	24.393393	544.18011	-326.21854	55.611328	559.47449	-325.93549	41.266521	594.59558	-93.866524	507.20526	906.37531	-227.36806	499.16013	928.57678	-91.081131	446.46793	918.41107	-158.65408	324.05911	1025.9397	-105.37607	105.92832	1066.2805	-180.28828	151.16812	1099.1625	-175.9079	47.675179	1033.865	-44.920868	113.74457	1203.6699	-103.29839	155.86221	1210.3821	-108.27843	171.69373	1246.4628
707	7.06	-235.21504	1337.9525	879.87488	-50.123356	1407.307	779.59229	-418.93692	1384.1514	807.00317	-122.78287	961.25006	827.13104	-382.6066	978.95081	815.95245	-294.96021	994.34613	647.94983	-165.71884	979.27112	647.44727	-390.27454	533.83075	633.10364	-260.97815	507.55042	656.091	-390.8038	456.78241	599.71222	-302.09109	298.80978	559.19647	-349.47885	134.40189	428.48297	-269.82788	145.99709	483.81351	-292.57684	131.40633	358.12759	-393.87958	24.093918	544.39832	-326.32892	55.270679	560.52466	-325.83038	41.027954	594.54047	-93.81826	506.57422	924.26306	-226.81937	499.30554	948.05756	-90.778587	445.30954	936.1026	-160.34821	320.01862	1039.0721	-107.67886	101.05302	1074.5029	-183.21576	145.15854	1106.7617	-176.60298	45.173874	1038.9324	-49.935818	106.34777	1213.106	-108.99935	147.80849	1219.458	-114.52324	162.68205	1255.6794
708	7.07	-232.93471	1336.4476	895.19116	-47.642071	1405.1039	795.04523	-416.50473	1383.0968	822.13593	-121.93115	959.83081	844.05334	-381.83762	977.41003	831.73444	-293.34042	992.59863	664.16614	-164.23763	977.82196	663.92462	-390.73392	532.37256	648.21637	-261.93204	505.39612	671.56604	-391.6601	456.01453	613.39093	-303.03006	299.30157	568.52789	-350.27014	138.30238	432.9624	-270.91742	148.55583	489.02374	-293.15213	137.88129	362.93491	-394.05078	23.809589	544.66431	-326.29349	54.821358	561.54681	-325.84036	41.005463	594.52081	-93.308723	506.64716	943.70758	-226.06813	498.91745	966.96649	-90.349472	443.96432	953.91113	-162.45027	315.35049	1050.8148	-109.86967	96.840851	1079.9784	-186.07494	138.8037	1112.4094	-176.52032	46.059307	1041.2051	-56.495712	97.314224	1219.8772	-114.94627	138.0407	1227.3567	-121.92955	151.40553	1263.4105
709	7.08	-230.58713	1335.2172	910.53595	-44.919785	1403.2454	810.70807	-413.95044	1382.5797	837.19177	-120.94314	958.91779	861.50629	-380.97968	975.65527	848.70502	-291.79767	990.95068	680.80072	-162.68687	976.57245	680.80023	-391.33926	530.72266	664.23651	-262.94751	503.14731	687.80499	-392.62827	455.04587	628.01129	-303.96918	299.65048	578.60736	-351.08636	142.49138	438.21643	-271.89624	150.89929	494.73886	-293.53537	144.84651	368.71808	-394.10507	23.579216	544.98267	-326.28986	54.503998	562.70807	-326.02328	41.208538	594.49341	-92.735046	506.3923	963.63715	-225.19708	498.04214	985.24323	-90.006401	442.59964	971.59784	-164.49783	310.83096	1061.8353	-111.70747	92.650681	1085.2301	-188.96654	132.91216	1117.4996	-176.59518	47.670357	1044.908	-61.760445	89.17672	1226.8413	-120.08485	128.62935	1234.6982	-128.02954	141.03029	1270.411
710	7.09	-228.16173	1334.3744	926.01428	-42.170692	1401.6133	826.33417	-411.21915	1382.0898	852.22772	-119.95258	958.59796	879.33447	-379.92151	974.0752	864.56274	-290.12363	989.39307	697.74628	-160.96635	975.48462	697.98517	-392.00076	528.88867	681.27826	-263.97894	500.79996	705.05951	-393.75107	453.85071	643.74683	-305.03177	300.03061	589.79303	-351.90994	147.0554	444.44553	-273.2981	153.50705	501.74152	-294.1001	152.95522	375.646	-394.0947	23.377007	545.33331	-326.08102	54.154762	563.98706	-326.06921	41.345036	594.53558	-92.359589	505.39578	982.06451	-223.72066	496.8251	1003.4802	-89.633614	441.40695	988.3324	-165.95828	307.44876	1073.4132	-112.83872	90.284119	1092.4161	-190.88121	128.03618	1125.1423	-177.3654	49.837669	1049.6675	-66.085693	81.016815	1232.9778	-124.6851	119.62904	1243.0132	-132.50525	130.24699	1278.3635
711	7.1	-225.69322	1334.046	941.54138	-39.278931	1400.2134	841.94232	-408.52704	1382.0065	867.10449	-118.91076	958.96069	897.32666	-378.48898	973.45251	881.43152	-288.38785	987.99988	714.86255	-159.02975	974.82697	715.41431	-392.71701	526.96497	699.45795	-265.17764	498.41385	723.56073	-395.05969	452.60046	660.61243	-306.18457	300.40121	602.28094	-352.59604	152.08299	451.9151	-274.53769	156.07164	509.99039	-294.27084	161.72888	384.26349	-394.03598	23.661488	545.91809	-325.87631	54.058331	565.53436	-326.10153	41.559608	594.7135	-92.074852	504.02133	998.04218	-221.60565	495.14203	1020.7773	-88.852562	439.87164	1002.8474	-166.58141	305.17407	1085.1366	-112.51232	89.507408	1101.3258	-191.62486	124.68181	1134.275	-177.71931	52.65387	1054.6187	-69.373871	72.317375	1240.1107	-128.15143	110.18548	1252.3704	-135.88437	118.55929	1288.6049
712	7.11	-223.23996	1334.3925	957.14868	-36.290066	1399.1952	857.61389	-405.66443	1382.3818	881.98743	-117.83635	959.89758	915.29315	-377.11575	972.60345	897.96771	-286.63556	986.73926	732.34235	-156.97522	974.71326	732.85907	-393.57431	524.96033	718.90894	-266.66037	495.86911	743.36877	-396.63379	451.48563	678.81854	-307.67834	301.05881	616.31647	-353.08994	157.57896	460.88159	-275.67511	158.54591	519.81213	-294.04294	171.51768	395.00723	-393.79416	24.278114	546.72418	-325.69235	53.973206	567.40491	-326.05185	41.902882	595.10779	-90.977959	502.13098	1010.4872	-219.59573	492.582	1034.4231	-87.134705	438.6864	1016.0481	-166.29199	303.61411	1096.6022	-111.70309	88.594688	1109.0724	-191.27623	121.92052	1142.9592	-177.25116	55.16222	1058.4934	-70.988815	61.603249	1247.2568	-130.11588	100.5183	1260.5231	-138.53549	106.51677	1298.333
713	7.12	-220.80287	1335.2716	972.7807	-33.385059	1398.4961	873.15839	-403.22083	1383.0492	896.89368	-116.678	961.36139	933.09143	-375.66138	971.94397	914.57184	-284.90799	986.03217	749.40527	-155.02338	974.90613	750.81799	-394.75159	523.01111	739.73181	-268.62408	493.18985	764.93286	-398.3656	450.49158	698.27264	-309.58801	301.68695	632.20825	-353.56735	163.55431	471.59839	-277.28455	161.05696	531.63043	-293.52567	182.28751	408.08179	-393.07443	25.25728	547.6806	-325.27744	54.056973	570.2265	-325.82944	42.1381	595.84662	-88.721474	501.69443	1022.6201	-218.74394	490.75699	1045.0067	-84.824348	438.65201	1029.9242	-165.3837	302.2276	1107.5332	-110.62227	87.60936	1114.8274	-190.64407	119.79471	1149.3979	-176.6275	56.625202	1060.8074	-70.836838	52.94891	1252.5751	-130.78622	91.494202	1266.6766	-139.54616	95.30999	1305.7732
714	7.13	-218.44174	1336.589	988.31409	-30.426081	1398.2834	888.74976	-400.63364	1384.1705	911.6615	-115.63229	963.29407	950.42657	-374.25418	971.45715	930.80243	-283.29102	985.71051	766.20911	-153.02602	976.22479	767.86823	-396.24838	520.75745	762.12195	-270.92715	489.99213	788.11749	-400.31015	449.7095	719.18359	-311.28552	302.12521	649.98022	-354.15607	170.08667	484.20078	-278.7355	163.60895	545.01562	-293.0011	194.09792	423.61856	-392.42978	27.20528	549.56879	-324.54117	54.040909	573.64362	-325.66754	42.127579	597.20349	-85.972054	502.27826	1035.8234	-217.52328	490.1716	1054.2161	-82.240814	440.05881	1044.8776	-163.78775	301.37119	1118.0039	-109.6995	87.775955	1118.3306	-190.231	118.6433	1153.7533	-176.18135	57.597965	1061.7114	-69.478287	47.458664	1255.484	-129.82489	85.763313	1270.814	-138.39441	87.449707	1311.1646
715	7.14	-216.12811	1338.197	1003.7731	-27.723961	1398.3774	904.24414	-398.21136	1385.7677	926.45593	-114.44221	965.54266	966.97351	-372.66321	971.3349	946.84772	-281.94312	985.8938	782.51166	-151.26527	978.38409	784.33569	-398.15417	518.1156	785.87915	-273.46655	486.23422	813.56506	-402.23364	448.70984	741.56824	-313.21906	302.82254	669.18042	-355.01633	177.32239	498.78323	-280.49442	167.70338	557.6366	-292.89328	207.17853	441.51086	-391.50882	29.577681	551.81042	-324.1825	54.484959	578.31696	-325.55579	41.669937	599.59845	-83.260414	504.69394	1051.8226	-214.56035	491.97272	1064.8468	-79.686249	441.93207	1059.5353	-161.86214	301.20688	1127.4827	-109.63316	88.073944	1120.6368	-190.08478	118.46348	1156.7257	-176.11888	58.093586	1062.7642	-67.825249	44.314766	1257.6626	-129.00085	82.314262	1273.356	-137.11742	82.220116	1314.5188
716	7.15	-213.95766	1340.0366	1019.1055	-25.137056	1398.9543	919.8067	-395.76508	1387.8561	941.09937	-113.07984	968.08044	982.76709	-371.05185	971.44696	962.57941	-280.96219	986.55927	798.23682	-150.08273	981.10474	800.1712	-399.89426	515.19659	810.58533	-275.87564	481.46112	840.935	-403.64084	447.45807	765.30438	-314.99472	303.66412	689.3938	-355.90585	185.42506	514.88055	-281.87573	171.76439	573.21777	-292.71771	220.8273	461.56976	-390.79102	32.909039	554.70868	-324.05225	55.859028	584.19781	-325.50623	41.10569	603.21472	-80.583267	507.94321	1068.8707	-211.0515	495.63333	1078.321	-77.382248	443.88416	1073.1044	-160.29651	301.59589	1136.2479	-110.00417	88.276787	1122.3997	-190.33528	118.42438	1158.5662	-175.91161	58.561028	1062.8374	-68.581421	44.200508	1259.3849	-130.22551	79.359367	1275.4602	-138.64705	77.581856	1316.9153
717	7.16	-212.03326	1342.0231	1034.3385	-23.070599	1399.4346	935.1073	-393.92328	1389.8617	955.92719	-111.47576	970.41309	998.00592	-369.54074	971.74951	977.76874	-280.35684	987.3963	813.55927	-149.44897	983.81537	815.37079	-400.81354	512.17981	835.98669	-277.91617	475.98773	870.58191	-404.36148	446.35434	790.21326	-316.42139	304.43311	710.5379	-356.78201	194.26479	531.9176	-284.12393	174.27081	594.86981	-292.78766	234.84528	483.51025	-389.97934	37.625965	557.87152	-324.63464	58.340248	591.61823	-325.87344	40.667061	608.15564	-78.128693	510.09708	1084.3207	-208.52632	499.91251	1092.8762	-75.462814	445.48462	1085.604	-159.09639	301.98096	1144.165	-110.20985	88.714806	1124.3132	-190.91348	118.16013	1160.3536	-175.89217	58.981625	1063.1895	-70.699852	44.313351	1260.8478	-131.435	76.586189	1277.1586	-140.96579	73.172913	1319.6272
